<svg class="animated" id="freepik_stories-curly-hair" xmlns="http://www.w3.org/2000/svg" viewBox="0 0 500 500" version="1.1" xmlns:xlink="http://www.w3.org/1999/xlink" xmlns:svgjs="http://svgjs.com/svgjs"><style>svg#freepik_stories-curly-hair:not(.animated) .animable {opacity: 0;}svg#freepik_stories-curly-hair.animated #freepik--Character--inject-81 {animation: 1s 1 forwards cubic-bezier(.36,-0.01,.5,1.38) slideUp;animation-delay: 0s;}            @keyframes slideUp {                0% {                    opacity: 0;                    transform: translateY(30px);                }                100% {                    opacity: 1;                    transform: inherit;                }            }        .animator-hidden { display: none; }</style><g id="freepik--background-simple--inject-81" class="animable animator-active animator-hidden" style="transform-origin: 260.187px 221.893px;"><path d="M414.13,338.69c46.53-24.71,52.13-89.93,11.28-127.78l-1.14-1C386.17,175,308.51,199.15,267.44,150,212,83.47,113.81,66.87,78.12,147.08,39.23,234.47,112,304.37,222.34,280c95.65-21.15,71.27,44.92,130.16,67C372.91,354.55,394.56,349.09,414.13,338.69Z" style="fill: #92E3A9; transform-origin: 260.187px 221.893px;" id="el8m185uoiatu" class="animable"></path><g id="elylpb7j7cx8"><path d="M414.13,338.69c46.53-24.71,52.13-89.93,11.28-127.78l-1.14-1C386.17,175,308.51,199.15,267.44,150,212,83.47,113.81,66.87,78.12,147.08,39.23,234.47,112,304.37,222.34,280c95.65-21.15,71.27,44.92,130.16,67C372.91,354.55,394.56,349.09,414.13,338.69Z" style="fill: rgb(255, 255, 255); opacity: 0.9; transform-origin: 260.187px 221.893px;" class="animable" id="elz1m39i90pd"></path></g></g><g id="freepik--Table--inject-81" class="animable animator-hidden" style="transform-origin: 260.83px 434.495px;"><rect x="49.11" y="422.27" width="423.44" height="15.44" rx="7.6" style="fill: rgb(224, 224, 224); transform-origin: 260.83px 429.99px;" id="elcwnyxf9oung" class="animable"></rect><path d="M452.22,446.72H72.94a9,9,0,0,1-9-9H461.22A9,9,0,0,1,452.22,446.72Z" style="fill: rgb(235, 235, 235); transform-origin: 262.58px 442.22px;" id="elzqqnj3kglog" class="animable"></path></g><g id="freepik--Sparkles--inject-81" class="animable" style="transform-origin: 274.02px 217.661px;"><path d="M186.79,168.2C180,169.57,179,171,178,180.32a.14.14,0,0,1-.28,0c-1-9.35-2.05-10.75-8.8-12.12a.14.14,0,0,1,0-.28c6.75-1.37,7.83-2.77,8.8-12.12a.14.14,0,0,1,.28,0c1,9.35,2,10.75,8.8,12.12A.14.14,0,0,1,186.79,168.2Z" style="fill: #92E3A9; transform-origin: 177.858px 168.06px;" id="el6gd9kde2kn" class="animable"></path><g id="elpnjwnv9zmn9"><path d="M186.79,168.2C180,169.57,179,171,178,180.32a.14.14,0,0,1-.28,0c-1-9.35-2.05-10.75-8.8-12.12a.14.14,0,0,1,0-.28c6.75-1.37,7.83-2.77,8.8-12.12a.14.14,0,0,1,.28,0c1,9.35,2,10.75,8.8,12.12A.14.14,0,0,1,186.79,168.2Z" style="fill: rgb(255, 255, 255); opacity: 0.4; transform-origin: 177.858px 168.06px;" class="animable" id="elefwf5i7wlt"></path></g><path d="M379.1,267.44c-6.76,1.37-7.83,2.77-8.8,12.11a.15.15,0,0,1-.29,0c-1-9.34-2-10.74-8.8-12.11a.15.15,0,0,1,0-.29C368,265.78,369,264.38,370,255a.15.15,0,0,1,.29,0c1,9.34,2,10.74,8.8,12.11A.15.15,0,0,1,379.1,267.44Z" style="fill: #92E3A9; transform-origin: 370.179px 267.275px;" id="elkczl1ebtibi" class="animable"></path><g id="elxk5cqp1kuad"><path d="M379.1,267.44c-6.76,1.37-7.83,2.77-8.8,12.11a.15.15,0,0,1-.29,0c-1-9.34-2-10.74-8.8-12.11a.15.15,0,0,1,0-.29C368,265.78,369,264.38,370,255a.15.15,0,0,1,.29,0c1,9.34,2,10.74,8.8,12.11A.15.15,0,0,1,379.1,267.44Z" style="fill: rgb(255, 255, 255); opacity: 0.4; transform-origin: 370.179px 267.275px;" class="animable" id="el4ijvygjj05g"></path></g></g><g id="freepik--Plant--inject-81" class="animable animator-hidden" style="transform-origin: 97.6551px 351.96px;"><path d="M87.67,390.83s-11.15,2.46-9.49-5.31,1.53-10.64-3-14.17-9.08-5.28-5.61-10.88-3.11-9.94-6.51-13,.43-5.28,1.33-11-5.22-4.84-5.7-12,6.8-15.55.54-25.42c0,0,8.41,4.36,11.17,12s.54,13.58,5.51,16.5,8.08,7.95,6.39,13.12.71,7.91,4.78,11.68,3,5.27,2.48,9.88.52,3.52,5.18,9.82S99.52,388.76,87.67,390.83Z" style="fill: #92E3A9; transform-origin: 78.1735px 345.125px;" id="elwnt98i04pq" class="animable"></path><g id="ellcg2dfm6vh"><path d="M89.25,390.48a.43.43,0,0,1,0-.12L66.9,322.69a.56.56,0,0,1,.35-.7h0a.57.57,0,0,1,.7.36L90.25,390a.51.51,0,0,1,0,.17Z" style="opacity: 0.4; transform-origin: 78.5652px 356.223px;" class="animable" id="el0qcxdrx8bkyd"></path></g><path d="M107.77,390.69s11.08,2.45,9.44-5.28-1.53-10.59,3-14.1,9-5.25,5.59-10.81,3.1-9.9,6.48-12.89-.44-5.26-1.33-10.92,5.19-4.81,5.67-11.94-6.76-15.47-.54-25.29c0,0-8.36,4.34-11.11,12s-.53,13.5-5.47,16.4-8,7.91-6.36,13.05-.71,7.87-4.76,11.62-3,5.24-2.47,9.83-.51,3.5-5.15,9.77S96,388.63,107.77,390.69Z" style="fill: #92E3A9; transform-origin: 117.237px 345.259px;" id="elp1ty6zgt7rs" class="animable"></path><g id="elm05b8zfr2ls"><path d="M105.17,390a.45.45,0,0,1,0-.16l22.17-67.31a.55.55,0,0,1,.69-.35h0a.55.55,0,0,1,.35.7l-22.17,67.3-.06.12Z" style="opacity: 0.4; transform-origin: 116.786px 356.227px;" class="animable" id="el4oyjryk5x18"></path></g><path d="M95.46,389.28s-12.75-1.06-8.39-8.83,5.17-10.89,1.49-16.18-8-8.67-2.4-13.51,0-11.68-2.67-16,2.22-5.51,5.07-11.31-4-6.91-2.12-14.75,12.45-14.4,9-27.05c0,0,7.56,7.47,8,16.59s-3.94,14.72.41,19.49,6,11.2,2.49,16.18-1.86,8.71,1.25,14.1,1.45,6.64-.63,11.41-.62,3.94,2.29,12.23S108.85,391,95.46,389.28Z" style="fill: #92E3A9; transform-origin: 96.4723px 335.554px;" id="elzwh37kkond" class="animable"></path><g id="elcqrr1kbkp6"><path d="M97.28,389.44a.77.77,0,0,1,0-.15l-1.41-79.88a.62.62,0,0,1,.61-.63h0a.63.63,0,0,1,.63.61l1.4,79.88a1.1,1.1,0,0,1,0,.18Z" style="opacity: 0.4; transform-origin: 97.1918px 349.115px;" class="animable" id="el4vu210j4jem"></path></g><polygon points="64.88 379.29 65.14 380.19 65.73 382.15 67.4 387.78 67.98 389.74 69.7 395.52 70.29 397.48 77.66 422.27 117.95 422.27 125.33 397.48 125.91 395.52 127.63 389.74 128.22 387.78 129.89 382.15 130.47 380.19 130.74 379.29 64.88 379.29" style="fill: #92E3A9; transform-origin: 97.81px 400.78px;" id="el0bpp94h1kxxc" class="animable"></polygon><g id="elqhtk7f3e00s"><g style="opacity: 0.2; transform-origin: 97.81px 400.78px;" class="animable" id="elalsz5go6wcj"><polygon points="64.88 379.29 65.14 380.19 65.73 382.15 67.4 387.78 67.98 389.74 69.7 395.52 70.29 397.48 77.66 422.27 117.95 422.27 125.33 397.48 125.91 395.52 127.63 389.74 128.22 387.78 129.89 382.15 130.47 380.19 130.74 379.29 64.88 379.29" id="el00pyswilm4o9p" class="animable" style="transform-origin: 97.81px 400.78px;"></polygon></g></g><rect x="61.15" y="376.33" width="72.33" height="8" style="fill: #92E3A9; transform-origin: 97.315px 380.33px;" id="el5vb9ss6o0d7" class="animable"></rect><g id="eldqd2a3rswg"><rect x="61.15" y="376.33" width="72.33" height="8" style="fill: rgb(255, 255, 255); opacity: 0.2; transform-origin: 97.315px 380.33px;" class="animable" id="elcy1fv6crxxi"></rect></g></g><g id="freepik--Character--inject-81" class="animable" style="transform-origin: 232.958px 258.505px;"><path d="M138.52,243.9a12.26,12.26,0,0,1-1.8,3.1,41.71,41.71,0,0,1-8,6.32,4.6,4.6,0,0,1-3.23.65c-4-.59-8.23-5.66-11.49-8-6.33-4.58-10.67-5.21-10.46-10.19.13-3.07,3.78-3.29,3.78-3.29s-1.87-2.7.1-4.06,4.87-.58,4.87-.58a101.9,101.9,0,0,0-6.58-8.78c-1.35-1.64-3.6-3.6-4.13-5.65-.37-1.42.26-2.4,1.23-2.48,3.28-.24,14.34,12.84,15,13.65-.42-.65-5.76-8.93-7.26-13.43-1.57-4.68,2-4,2-4,3.17.71,14,19.43,16.2,20.22,0,0,3.11-2.76,5.44-1.52s4.64,10.32,4.64,10.32A11.34,11.34,0,0,1,138.52,243.9Z" style="fill: rgb(127, 62, 59); transform-origin: 120.417px 230.58px;" id="elreql1vmse8g" class="animable"></path><g id="el46zig7cbwj8"><g style="opacity: 0.2; transform-origin: 122.801px 235.606px;" class="animable" id="el94a1bmlet4"><path d="M135.68,231.13a.47.47,0,0,0-.67.11c-2.2,3-5.3,5.52-7.88,6.31-.31.08-.61.15-.87.19a2.15,2.15,0,0,1-1.61-.26,1.38,1.38,0,0,1-.5-1,4.42,4.42,0,0,1,.29-2,6.92,6.92,0,0,1,.4-.9,17.64,17.64,0,0,1,3.88-4.7.48.48,0,1,0-.61-.73,18.77,18.77,0,0,0-4,4.81,22.28,22.28,0,0,0-4.75-4.57.49.49,0,1,0-.52.82,22.49,22.49,0,0,1,4.83,4.69c0,.09-.08.18-.11.27a5.25,5.25,0,0,0-.34,2.42,2.33,2.33,0,0,0,.87,1.64,3,3,0,0,0,2.32.44l.14,0a24.16,24.16,0,0,1,2.25,9.13.49.49,0,0,0,.49.46l.11,0a.47.47,0,0,0,.34-.47,25.42,25.42,0,0,0-2.26-9.3c2.8-.88,6-3.42,8.33-6.65A.48.48,0,0,0,135.68,231.13Z" id="eljyckanfwszl" class="animable" style="transform-origin: 127.234px 238.127px;"></path><path d="M113.56,228a.49.49,0,0,0-.67.08.47.47,0,0,0,.08.67c1.56,1.23,5.63,4.87,5.72,6.92a1,1,0,0,1-.31.79c-1.35,1.26-4.76-.43-6-1.18a.48.48,0,0,0-.59.74c1.25,1.24,4.51,5.11,3.13,6.55-1,1-3.61.07-4.54-.38a.49.49,0,0,0-.64.22.47.47,0,0,0,.22.64c.33.16,2.8,1.3,4.58.8a2.33,2.33,0,0,0,1.07-.62c1.49-1.55-.08-4.21-1.5-6,1.59.63,3.65,1.09,4.88-.06a1.86,1.86,0,0,0,.61-1.52C119.52,232.75,114.17,228.45,113.56,228Z" id="el1g9h45cb4xi" class="animable" style="transform-origin: 114.647px 235.939px;"></path><path d="M116.6,227.42a.53.53,0,0,0,.33,0,.48.48,0,0,0,.3-.26,7.4,7.4,0,0,1,3.8-3.29.47.47,0,0,0,.25-.62.47.47,0,0,0-.62-.26,8.23,8.23,0,0,0-4.3,3.78A.48.48,0,0,0,116.6,227.42Z" id="el2k8jqqv888r" class="animable" style="transform-origin: 118.815px 225.2px;"></path></g></g><path d="M207.19,297.76q-3.76,5.46-7.68,10.89c-2.18,3-4.38,6-6.72,9-1.18,1.52-2.36,3-3.69,4.62l-1,1.2L187,324.71l-.28.32-.35.36-.69.73-.35.36-.18.18-.25.25-1.07,1-.55.48a14.84,14.84,0,0,1-3,2,15.09,15.09,0,0,1-7.08,1.64c-.55,0-1,0-1.47-.1l-.71-.09-.6-.12c-.39-.08-.82-.18-1.16-.27l-1-.31-.85-.32-.76-.34c-.41-.2-.87-.44-1.22-.64a19.72,19.72,0,0,1-3.11-2.23,23.67,23.67,0,0,1-1.87-1.79,39.41,39.41,0,0,1-2.58-3.05c-.73-.95-1.37-1.86-2-2.75a114.68,114.68,0,0,1-6.11-10.27C146.16,303,143,296.39,140,289.68c-5.27-11.8-10.09-23.62-14.46-35.71,1.1.17,1.25-3.53,2.3-4.18a18.8,18.8,0,0,0,6.85-7.24s3,3.28,3.84,1.35c7.15,11.74,14.23,23.62,21.42,35.17,1.86,3,3.77,6,5.66,8.9s3.79,5.82,5.73,8.6l.6.85c1.06-1.68,2.11-3.4,3.16-5.12,3.68-6,7.34-12.06,11-18.14l.46-.77c2.72,6.33,9.3,18.88,20.4,24Z" style="fill: rgb(127, 62, 59); transform-origin: 166.365px 287.291px;" id="el0p0r72bikh7" class="animable"></path><path d="M138.52,243.9a12.26,12.26,0,0,1-1.8,3.1,41.71,41.71,0,0,1-8,6.32,4.6,4.6,0,0,1-3.23.65q-.89-2.46-1.75-4.94l6.68-.31,1.17-.76,6.07-5.41Z" style="fill: rgb(127, 62, 59); transform-origin: 131.13px 248.292px;" id="el9xcj0b11rp" class="animable"></path><path d="M235.07,253.83C232.72,258,230.3,262,227.84,266q-2,3.22-4,6.43L218,281.58l-.69,1.05-4.48,6.79-.82,1.24-1.13,1.67c-.2.29-.39.59-.6.88-1,1.45-2,2.91-3,4.36,0,.06-.09.12-.13.19l-.22-.35c-11.1-5.14-17.68-17.69-20.4-24q1.37-2.26,2.74-4.53c.21-.35.42-.7.64-1.05,5.46-9,11-18.1,16.67-27,.64-1,1.29-2,1.94-3l2.62,1.59,10.64,6.45,3.62,2.19Z" style="fill: rgb(127, 62, 59); transform-origin: 210.8px 267.795px;" id="elvzl4u02bikq" class="animable"></path><path d="M211.83,359.78s-15,30.91-17.62,62.49H323.44s10.71-40.72-8.57-66.81Z" id="elxl1xkenvf49" class="animable" style="transform-origin: 260.308px 388.865px;"></path><path d="M340.8,265c-2.74,5.74-7.73,2.49-8.23,8.48s2,6.48-2.24,10.47-5.48,6-3.24,10.72-4,16.45-18.7,3-35.9-5.48-65.69-16.45-11.09-58.84-15.24-62.08,4.9-11-.53-13.7c-1.43-.72-3.1.31-4.55.54a11.56,11.56,0,0,1-12.86-14.62l.09-.3c3.07-9.94-4.46-8.24-5.18-14.46-.78-6.89,7-9.17,3.09-13.22-3.77-3.88-7.54-8.68-3.44-15.17s-3.08-10.73-.54-15.89c2.78-5.63,6.56-3.42,8.26-8.19s-.84-8.89,2.88-12.62c4-4,10.67.63,12.65-2.78s.26-8.2,7.1-10.24,10.67,5.8,13.7,3.75,3.36-7.5,10.88-7.5,7.85,9.55,12.63,8.52,4.71-2.67,10-1.54c8.64,1.83,5,9.39,9.81,11.1s9.21,1.36,11.26,7.51-3.07,9.55,0,13,6.83,5.1,6.2,11.07-4.71,7.19-2.23,11.71,4.31,9.83,0,15.7,2.92,4.28,3.17,10.61a9.92,9.92,0,0,1-1.8,5.49,3.87,3.87,0,0,0,1.8,6.51c7.48,2.58-.41,10.09,5.59,12.42,4.84,1.88,7.68-.65,8.64,6.83,1.16,9.08,4.19,3.52,7.93,8.25s-.71,9.54,5.25,12.67c5.73,3,6.84,7.5,3.43,14.67S343.54,259.23,340.8,265Z" id="elj0uul01bux" class="animable" style="transform-origin: 272.458px 199.331px;"></path><path d="M220,169.27a.45.45,0,0,1,.09.56A9.1,9.1,0,1,0,231.78,177a9.94,9.94,0,0,0-6-7c.15-.15.28-.32.48-.53a10,10,0,0,1,6.07,7.46,9.69,9.69,0,1,1-12.39-7.6Z" style="fill: rgb(255, 255, 255); transform-origin: 222.784px 178.777px;" id="eldxjtc6yrxs7" class="animable"></path><path d="M308.83,144.43l-1-.24c2.71-11.43-7.59-15.72-8-15.9l.38-.95C300.3,127.38,311.74,132.12,308.83,144.43Z" id="el5vw83dgwzuf" class="animable" style="transform-origin: 304.567px 135.885px;"></path><path d="M222.18,209.65c-4.39,0-9.46-1.1-12.8-5.35-7.57-9.64.66-22.18.75-22.31l.85.57c-.08.12-7.9,12.05-.79,21.1,6.38,8.12,20.25,3.75,20.39,3.71l.31,1A31.41,31.41,0,0,1,222.18,209.65Z" id="elp72dognpdzo" class="animable" style="transform-origin: 218.536px 195.82px;"></path><path d="M213.23,130.46c-.06-.06-6.41-6.2-3.18-13.68a11.12,11.12,0,0,1,9.84-7l0,1a10,10,0,0,0-8.87,6.39c-2.95,6.81,2.88,12.47,2.94,12.53Z" id="elytft2mkqud" class="animable" style="transform-origin: 214.512px 120.12px;"></path><path d="M225,251.49l-7.72,31.14-4.15,16.72a24.53,24.53,0,0,1-5.85-1.78l-.35-.16c-11.1-5.14-17.68-17.69-20.4-24-1-2.31-1.47-3.79-1.47-3.79l2.63-4.46h0l.08-.11,22.34-37.79.6-1,11.07,19.58Z" style="fill: #92E3A9; transform-origin: 205.03px 262.805px;" id="el76pbnbb2t18" class="animable"></path><g id="ela1kuu0n9l4v"><path d="M213.17,299.35a24.53,24.53,0,0,1-5.85-1.78l-.35-.16c-11.1-5.14-17.68-17.69-20.4-24-1-2.31-1.47-3.79-1.47-3.79l2.63-4.46h0l.08-.11,22.34-37.79.6-1,.43,13.13,1.66,50.07Z" style="opacity: 0.3; transform-origin: 199.135px 262.805px;" class="animable" id="elnfwux082h4"></path></g><g id="ela1doa1p2g9s"><g style="opacity: 0.2; transform-origin: 199.36px 279.025px;" class="animable" id="el4jw8bpkcwni"><path d="M210.82,293.34c-13.29-2.76-22.72-27.24-23.12-28.28l.93-.35c.1.25,9.64,25,22.39,27.65Z" id="elp5qxap6v2c" class="animable" style="transform-origin: 199.36px 279.025px;"></path></g></g><path d="M317.56,287.37c-.3,5.59-.43,10.88-.44,15.9,0,22.87,2.43,40,2.41,51.66a6.16,6.16,0,0,1-5.39,6.1c-41.74,5.12-89.5,6.37-103.13.53a10.62,10.62,0,0,1-2.17-1.19c-7-9.29.29-59.64-1.17-61.87l-.48-.74-.22-.35a49.37,49.37,0,0,1-4.37-8.63q-.4-1.08-.75-2.13c-5.42-17.11,4.33-28,4.33-35.82,0-3.59.13-6.94.44-10a38.46,38.46,0,0,1,3.53-13.57c3-5.95,8.11-10.09,16.48-12.36a51,51,0,0,1,5.94-1.21c3.92-.58,8-1.07,12-1.47l2.18-.21,2.63-.22h0l.4,0,3-.2,1-.05,2.85-.13,2.86-.09c4.82-.11,9.67-.07,14.7.07l3.08.1c1.42,0,2.86.1,4.31.16h0l3.64.16,2.69.12,2.3.11c4.15.2,8.19.52,12,.91a24,24,0,0,1,10.12,3.38,24.22,24.22,0,0,1,11.15,25.66c-1.81,8.64-3.15,16.84-4.11,24.6h0c-.07.46-.12.92-.17,1.37q-.81,6.68-1.28,12.9a.22.22,0,0,1,0,.08q-.24,3.3-.41,6.47S317.55,287.37,317.56,287.37Z" style="fill: #92E3A9; transform-origin: 262.101px 288.344px;" id="elv876wpt3uo8" class="animable"></path><g id="el7k1dnr7rljy"><g style="opacity: 0.2; transform-origin: 304.556px 314.25px;" class="animable" id="elqixwwt9m0dh"><path d="M305.23,361.75l-1-.21c6.84-32.67-2.74-94-2.83-94.63l1-.16C302.51,267.37,312.11,328.89,305.23,361.75Z" id="el4e2dul81y6y" class="animable" style="transform-origin: 304.556px 314.25px;"></path></g></g><path d="M314.66,373.07a50,50,0,0,1-9.43-1.66c-4.48-1.33-13,3.66-15.12,6.82s8.64-1.66,11.14,0,10,19.28,12.63,21.44,12.17-13,12.17-13Z" style="fill: rgb(127, 62, 59); transform-origin: 307.943px 385.535px;" id="elhd54up7b2lk" class="animable"></path><path d="M288,211.87c-3.59,2.84-9.54,10.5-20.91,19.16C254.2,240.81,235.23,246,234,233.25c-.88-8.9,5.73-16.52,10.6-21.06l2.18-.21C260.25,210.75,272.85,211.16,288,211.87Z" style="fill: rgb(255, 255, 255); transform-origin: 260.96px 226.002px;" id="elj9tlrjpgebr" class="animable"></path><path d="M281.62,211.59s-4.76,3.4-10.92,8.25l0,0c-12.13,10.61-24.7,14.67-28.45,11.32-4.36-3.92,3.35-13.26,4.34-14.46,0,0,0,0,0,0l.12-.13,0,0h0c3.29-3.92,3.62-7.87,2.84-12.53a38.3,38.3,0,0,0-2.74-8.82l3.74-4.38L270.19,171C269.7,184.21,271.3,204.43,281.62,211.59Z" style="fill: rgb(127, 62, 59); transform-origin: 261.272px 201.653px;" id="elsx0vqtfag8d" class="animable"></path><g id="el1wwl6eky1rx"><g style="opacity: 0.2; transform-origin: 254.095px 197.4px;" class="animable" id="elnj3v35binyt"><path d="M249.6,204a38.3,38.3,0,0,0-2.74-8.82l3.75-4.38,10.72,1.49S257.51,200.62,249.6,204Z" id="ele45ci4m0a3w" class="animable" style="transform-origin: 254.095px 197.4px;"></path></g></g><path d="M276,148.07c-.78,21.69-.65,30.88-11.1,42.26-15.73,17.12-41.69,11.38-47.28-10.11-5-19.35-2.93-51.57,17.64-60.7,20.28-9,41.51,6.86,40.74,28.55Z" style="fill: rgb(127, 62, 59); transform-origin: 245.676px 158.653px;" id="el64q7ano5bqp" class="animable"></path><path d="M225.61,157.36a.5.5,0,0,1-.23,0,.69.69,0,0,1-.64-.45,4,4,0,0,0-2.74-2.39,3.94,3.94,0,0,0-3.25.68c-1.74,1.9-3.95-.9-3.95-.9l2.52.49a5.08,5.08,0,0,1,5-1.59,5.37,5.37,0,0,1,3.72,3.26A.65.65,0,0,1,225.61,157.36Z" id="elxx2ufnpk3y" class="animable" style="transform-origin: 220.449px 155.217px;"></path><path d="M249.3,153.13s-2.37,3-4.22,1a4.18,4.18,0,0,0-3.46-.73,4.29,4.29,0,0,0-2.94,2.56.72.72,0,0,1-.68.48.75.75,0,0,1-.24,0,.73.73,0,0,1-.43-.92,5.75,5.75,0,0,1,4-3.48,5.45,5.45,0,0,1,5.32,1.68Z" id="elkp8lsls1weo" class="animable" style="transform-origin: 243.295px 154.172px;"></path><path d="M231.61,179.16h0a.74.74,0,0,1-.71-.77.75.75,0,0,1,.77-.72c.31,0,7.73.2,9.11-7.59a.75.75,0,0,1,1.47.26C240.63,179.42,231.71,179.16,231.61,179.16Z" id="el9xg1x112yh9" class="animable" style="transform-origin: 236.576px 174.347px;"></path><path d="M277.14,154.12c3-2.49,3.84-12.08,1.47-18.93s-4.74-19.7-19.95-22.19-33.72-5.68-42.34,16c0,0-.83,5.6,2.31,7.4,3.92,2.24,4.83-4.08,8.16-5.49,2.22-.94,2.06,2.74,6.48,2.63,2.92-.08,2.4-3.83,5.87-3.83s2.8,3.43,6.54,4.69c3.21,1.08,4.73-2.24,6.95-1.08s.38,3.74,3,6,4.22-.06,6.46,1.56-3.15,7-1.3,9.59c1.65,2.33,6.16,1.09,5.17,4.81-1.69,6.33-8.5,10.32-5.71,18s12.66,4.13,12.66,4.13C264,176.12,257.45,170.64,277.14,154.12Z" id="elnyb7yr9ot0d" class="animable" style="transform-origin: 248.101px 144.726px;"></path><path d="M228.51,155.27s-2.92,4.74-6.12,8.88a2.64,2.64,0,0,0,.94,4,26.06,26.06,0,0,0,5.52,1.73Z" style="fill: rgb(99, 15, 15); transform-origin: 225.342px 162.575px;" id="eldyhmeyaqvgu" class="animable"></path><path d="M284.09,162.88a14,14,0,0,1-8.35,7.85c-4.78,1.46-7.3-3.76-6.08-9.15,1.1-4.85,4.91-11.46,9.76-10.53s6.76,7,4.67,11.83Z" style="fill: rgb(127, 62, 59); transform-origin: 277.142px 160.97px;" id="elsjdvd09r2n" class="animable"></path><path d="M275.33,166.6a.44.44,0,0,1,.1.56,9.1,9.1,0,1,0,11.73,7.13,9.93,9.93,0,0,0-6-7c.15-.15.28-.32.48-.53a10.09,10.09,0,0,1,6.07,7.46,9.7,9.7,0,1,1-12.4-7.6Z" style="fill: rgb(255, 255, 255); transform-origin: 278.155px 176.097px;" id="elrx5hch3hmv" class="animable"></path><path d="M250.72,147.33a1,1,0,0,1-.72-.39,8.26,8.26,0,0,0-6.69-3.34,1,1,0,1,1-.18-2.06,10.25,10.25,0,0,1,8.5,4.12,1,1,0,0,1-.17,1.46,1,1,0,0,1-.74.21Z" id="elj96jjoxdg89" class="animable" style="transform-origin: 247.029px 144.437px;"></path><path d="M215.52,146.33a1,1,0,0,1-.7-1.77,10.32,10.32,0,0,1,9-3,1,1,0,0,1-.44,2,8.21,8.21,0,0,0-7.07,2.46,1,1,0,0,1-.76.3Z" id="el10fo460u4xo" class="animable" style="transform-origin: 219.54px 143.884px;"></path><path d="M323.71,235.69c7.05,11.46,13.54,23.1,19.82,35,3.17,5.93,6.17,11.95,9.18,18,1.51,3,2.93,6.14,4.38,9.28s2.84,6.32,4.25,9.8c.35.88.68,1.78,1,2.76s.69,2,1.08,3.28l.14.49.15.58.16.59.16.76.08.39.1.53c.08.5.14,1,.18,1.52a9.57,9.57,0,0,1,.05,1.24c0,.38,0,.75,0,1.12a23.72,23.72,0,0,1-1,5.25c-.38,1.31-.77,2.41-1.17,3.42s-.8,2-1.21,2.87c-.82,1.82-1.64,3.49-2.5,5.11-1.72,3.22-3.49,6.24-5.29,9.22s-3.63,5.87-5.51,8.72c-7.51,11.4-15.4,22.24-24,32.79l-13-8.2c5.55-12,11.34-24,16.75-35.78,2.64-5.92,5.35-11.83,7.44-17.51.51-1.4,1-2.78,1.42-4.06.2-.63.39-1.26.52-1.8a10.87,10.87,0,0,0,.27-1.35c0-.29,0-.52-.14.34,0,.16,0,.33,0,.49s0,.26,0,.63a6.91,6.91,0,0,0,.11.9.65.65,0,0,1,0,.22v.08l0,.16h0l-.05-.11-.66-1.38-.92-1.83c-1.31-2.59-2.84-5.39-4.4-8.16l-4.81-8.41c-3.22-5.66-6.61-11.29-9.89-17-6.63-11.36-13.31-22.81-19.62-34.34Z" style="fill: rgb(127, 62, 59); transform-origin: 330.611px 312.05px;" id="ellnaw59a3vzs" class="animable"></path><path d="M343.43,262.19a127.56,127.56,0,0,1-14.85,12l-.26.19a186.48,186.48,0,0,1-22.48,12.88s-21.58-20.54-24-44.44c-2.21-21.66,15-27.24,15-27.24C325.61,205.16,343.43,262.19,343.43,262.19Z" style="fill: #92E3A9; transform-origin: 312.537px 250.784px;" id="elk59prep3frn" class="animable"></path><g id="el78spn6yf4vg"><path d="M343.43,262.19a127.56,127.56,0,0,1-14.85,12l-.26.19a159.54,159.54,0,0,1-22.48,12.88s-21.58-20.54-24-44.44c-2.21-21.66,15-27.24,15-27.24C325.61,205.16,343.43,262.19,343.43,262.19Z" style="opacity: 0.2; transform-origin: 312.537px 250.784px;" class="animable" id="elxr0om1aaws"></path></g><g id="elpbz49mmafan"><g style="opacity: 0.2; transform-origin: 319.09px 265.48px;" class="animable" id="el4iqf5za7ohx"><path d="M299.25,279.85l-.45-.93c11.08-5.45,28.82-17.05,39.86-27.81l.72.75C328.26,262.7,310.41,274.37,299.25,279.85Z" id="ele9nd6xnb0hc" class="animable" style="transform-origin: 319.09px 265.48px;"></path></g></g></g><defs>     <filter id="active" height="200%">         <feMorphology in="SourceAlpha" result="DILATED" operator="dilate" radius="2"></feMorphology>                <feFlood flood-color="#32DFEC" flood-opacity="1" result="PINK"></feFlood>        <feComposite in="PINK" in2="DILATED" operator="in" result="OUTLINE"></feComposite>        <feMerge>            <feMergeNode in="OUTLINE"></feMergeNode>            <feMergeNode in="SourceGraphic"></feMergeNode>        </feMerge>    </filter>    <filter id="hover" height="200%">        <feMorphology in="SourceAlpha" result="DILATED" operator="dilate" radius="2"></feMorphology>                <feFlood flood-color="#ff0000" flood-opacity="0.5" result="PINK"></feFlood>        <feComposite in="PINK" in2="DILATED" operator="in" result="OUTLINE"></feComposite>        <feMerge>            <feMergeNode in="OUTLINE"></feMergeNode>            <feMergeNode in="SourceGraphic"></feMergeNode>        </feMerge>            <feColorMatrix type="matrix" values="0   0   0   0   0                0   1   0   0   0                0   0   0   0   0                0   0   0   1   0 "></feColorMatrix>    </filter></defs></svg>